<?xml version="1.0" encoding="utf-8"?>
<!-- Generator: Adobe Illustrator 18.1.0, SVG Export Plug-In . SVG Version: 6.00 Build 0)  -->
<!DOCTYPE svg PUBLIC "-//W3C//DTD SVG 1.1//EN" "http://www.w3.org/Graphics/SVG/1.1/DTD/svg11.dtd">
<svg version="1.1" id="Layer_1" xmlns="http://www.w3.org/2000/svg" xmlns:xlink="http://www.w3.org/1999/xlink" x="0px" y="0px"
	 viewBox="0 0 612 792" enable-background="new 0 0 612 792" xml:space="preserve">
<g>
	<g>
		<path fill="#8D734A" d="M349.5,231.9l-123.4,131V259.6l27.7-23.9l-9.6-13.4L184.1,273l10.5,13.4l15.3-13.4v35.4L12,526.4
			l11.5,12.4l186.5-204.6v45.9l-109,117.6h125.3v-109L361,244.3L349.5,231.9z M208.9,479.6h-68.9l68.8-73.6L208.9,479.6L208.9,479.6
			z"/>
		<polygon fill="#8D734A" points="208.9,145.9 217.6,145.9 217.6,175.5 222.3,175.5 222.3,194.6 253.9,167.8 264.4,181.2 163,268.3 
			178.3,289.3 165.9,300.8 139.1,266.3 204.2,209.9 204.2,175.5 208.9,175.5 		"/>
	</g>
	<text transform="matrix(0.9555 0 0 1 233.7022 480.2254)" fill="#8D7249" font-family="'FARRAY-Regular'" font-size="125.941">MENU</text>
	<rect x="280.7" y="508.3" opacity="0.7" fill="#8D7249" enable-background="new    " width="276.4" height="6.7"/>
	<rect x="321.8" y="518.8" opacity="0.5" fill="#8D7249" enable-background="new    " width="194.1" height="5.7"/>
</g>
</svg>
