<?xml version="1.0" encoding="utf-8"?>
<!-- Generator: Adobe Illustrator 18.1.0, SVG Export Plug-In . SVG Version: 6.00 Build 0)  -->
<!DOCTYPE svg PUBLIC "-//W3C//DTD SVG 1.1//EN" "http://www.w3.org/Graphics/SVG/1.1/DTD/svg11.dtd">
<svg version="1.1" id="Layer_1" xmlns="http://www.w3.org/2000/svg" xmlns:xlink="http://www.w3.org/1999/xlink" x="0px" y="0px"
	 viewBox="0 0 172.4 201" enable-background="new 0 0 172.4 201" xml:space="preserve">
<g>
	<g>
		<path fill="#B4975A" d="M166.9,43.9l-60.9,67.1V58l13.9-12.3l-4.9-7.1l-29.9,26l5.1,7.1l7.5-6.7V83L0,194.7l5.6,6.2L97.8,96.1
			v23.7l-53.7,60.1h61.6v-55.8l66.6-74L166.9,43.9z M97.8,170.8h-34l34-37.9V170.8z"/>
		<polygon fill="#B4975A" points="97.8,0 102.1,0 102.1,15.3 104.3,15.3 104.3,25.2 120.1,11.2 125.2,18.3 75,62.7 82.8,73.6 
			76.6,79.3 63.4,61.6 95.5,33 95.5,15.3 97.8,15.3 		"/>
	</g>
</g>
</svg>
